<svg width="36" height="36" viewBox="0 0 36 36" fill="none" xmlns="http://www.w3.org/2000/svg">
<path fill-rule="evenodd" clip-rule="evenodd" d="M18 36C27.9411 36 36 27.9411 36 18C36 8.05887 27.9411 0 18 0C8.05887 0 0 8.05887 0 18C0 27.9411 8.05887 36 18 36Z" fill="#4466FB"/>
<path d="M19.3337 10.8002H16.667C16.5199 10.8002 16.4004 10.9196 16.4004 11.0668C16.4004 11.214 16.5199 11.3335 16.667 11.3335H19.3337C19.4809 11.3335 19.6004 11.214 19.6004 11.0668C19.6004 10.9196 19.4809 10.8002 19.3337 10.8002Z" fill="white"/>
<path d="M21.2003 10.8002H20.9336C20.7865 10.8002 20.667 10.9196 20.667 11.0668C20.667 11.214 20.7865 11.3335 20.9336 11.3335H21.2003C21.3475 11.3335 21.467 11.214 21.467 11.0668C21.467 10.9196 21.3475 10.8002 21.2003 10.8002Z" fill="white"/>
<path d="M18.3314 23.5997H17.6693C17.2637 23.5997 16.9336 23.9299 16.9336 24.3354V24.4643C16.9336 24.8699 17.2637 25.1997 17.6691 25.1997H18.3312C18.7368 25.1997 19.0669 24.8699 19.0669 24.4643V24.3354C19.0669 23.9299 18.7368 23.5997 18.3314 23.5997ZM18.5336 24.4643C18.5336 24.5757 18.4429 24.6664 18.3315 24.6664H17.6693C17.5576 24.6664 17.4669 24.5757 17.4669 24.4643V24.3354C17.4669 24.2237 17.5576 24.133 17.6693 24.133H18.3312C18.4429 24.133 18.5336 24.2237 18.5336 24.3354V24.4643Z" fill="white"/>
<path d="M21.5688 10H14.4298C13.8984 10 13.4658 10.4325 13.4658 10.964V25.036C13.4658 25.5675 13.8984 26 14.4298 26H21.5685C22.0999 26 22.5325 25.5675 22.5325 25.0363V10.964C22.5325 10.4325 22.1 10 21.5688 10ZM21.9992 25.036C21.9992 25.2733 21.8061 25.4667 21.5688 25.4667H14.4298C14.1922 25.4667 13.9992 25.2733 13.9992 25.0363V10.964C13.9992 10.7267 14.1922 10.5333 14.4298 10.5333H21.5685C21.8061 10.5333 21.9991 10.7267 21.9991 10.964V25.036H21.9992Z" fill="white"/>
<path d="M22.2668 11.5997H13.7335C13.5863 11.5997 13.4668 11.7192 13.4668 11.8664V23.0664C13.4668 23.2136 13.5863 23.333 13.7335 23.333H22.2668C22.414 23.333 22.5335 23.2136 22.5335 23.0664V11.8664C22.5335 11.7192 22.414 11.5997 22.2668 11.5997ZM22.0001 22.7997H14.0001V12.1331H22.0001V22.7997Z" fill="white"/>
</svg>
