<svg width="13" height="11" viewBox="0 0 13 11" fill="none" xmlns="http://www.w3.org/2000/svg">
<path d="M1.93317 0C2.10996 0 2.27932 0.0711172 2.4031 0.197336L5.7628 3.62304C6.15553 4.02349 6.80074 4.02267 7.19246 3.62124L10.5289 0.202022C10.655 0.0728415 10.8278 0 11.0083 0C11.6004 0 11.9013 0.711723 11.4889 1.13644L8.14061 4.58459C7.76432 4.97211 7.76377 5.58842 8.13938 5.9766L11.8979 9.861C12.3104 10.2873 12.0083 11 11.4151 11C11.2351 11 11.0625 10.9277 10.9363 10.7994L7.19127 6.99419C6.7995 6.59611 6.1576 6.59611 5.76582 6.99419L2.0158 10.8045C1.89274 10.9296 1.72463 11 1.54919 11C0.97042 11 0.676328 10.3041 1.0797 9.88904L4.83916 6.0207C5.21501 5.63397 5.21651 5.01887 4.84254 4.63031L1.45892 1.11465C1.05648 0.6965 1.35282 0 1.93317 0Z" fill="#333333"/>
</svg>
