<svg width="23" height="23" viewBox="0 0 23 23" fill="none" xmlns="http://www.w3.org/2000/svg">
<path d="M11.4981 0C14.7838 0 17.4697 2.68593 17.4697 5.97166C17.4697 9.2574 14.7838 11.9433 11.4981 11.9433C8.21233 11.9433 5.52641 9.2574 5.52641 5.97166C5.52641 2.68593 8.21233 0 11.4981 0Z" fill="white"/>
<path d="M1.25016 16.7153C1.40664 16.3241 1.61522 15.959 1.84992 15.62C3.04948 13.8468 4.90091 12.6733 6.98708 12.3865C7.24783 12.3604 7.53468 12.4125 7.74332 12.569C8.83856 13.3774 10.1424 13.7946 11.4984 13.7946C12.8545 13.7946 14.1583 13.3774 15.2536 12.569C15.4622 12.4125 15.749 12.3343 16.0098 12.3865C18.096 12.6733 19.9735 13.8468 21.147 15.62C21.3816 15.959 21.5903 16.3502 21.7467 16.7153C21.8249 16.8718 21.7989 17.0543 21.7207 17.2108C21.512 17.5758 21.2513 17.9409 21.0166 18.2538C20.6515 18.7493 20.2603 19.1926 19.817 19.6098C19.452 19.9749 19.0347 20.3139 18.6175 20.6529C16.5574 22.1915 14.08 22.9998 11.5245 22.9998C8.96894 22.9998 6.4916 22.1914 4.43153 20.6529C4.0143 20.34 3.59708 19.9749 3.23196 19.6098C2.81474 19.1926 2.39751 18.7493 2.0324 18.2538C1.77165 17.9148 1.53691 17.5758 1.32833 17.2108C1.198 17.0543 1.17195 16.8717 1.25016 16.7153Z" fill="white"/>
</svg>
